<?xml version="1.0" encoding="UTF-8"?>
<svg id="Layer_1" xmlns="http://www.w3.org/2000/svg" version="1.1" viewBox="0 0 595.28 841.89">
  <!-- Generator: Adobe Illustrator 29.5.0, SVG Export Plug-In . SVG Version: 2.1.0 Build 137)  -->
  <defs>
    <style>
      .st0 {
        fill: #d70f89;
      }

      .st1 {
        fill: #cf4f9d;
      }

      .st2 {
        fill: #671852;
        font-family: BrushScriptMT, 'Brush Script MT';
        font-size: 70px;
      }

      .st3 {
        fill: #d568a8;
      }

      .st4 {
        fill: none;
        stroke: #ea0a8c;
        stroke-miterlimit: 10;
      }

      .st5 {
        fill: #ea0a8c;
      }
    </style>
  </defs>
  <path class="st5" d="M324.49,419.51l62.19-51.79s37.26,16.23,42.89,30.47c0,0-33.31,41.83-74.14,46.98l-30.94-25.67Z"/>
  <path class="st0" d="M223.94,350.35c-23.76-41.75-34.59-71.98-30.17-77.5,10.94-13.68,31.71-27.25,31.71-27.25,5.15,20.36,16.38,40.29,27.93,60.78"/>
  <path class="st5" d="M89.79,537.42l-34.85-17.41s101.64-77.88,168.4-170.38c10.11-14,19.42-28.34,27.45-42.79,11.05-19.89,19.7-39.99,24.7-59.74,0,0,20.59,13.62,31.53,27.31,4.34,5.43-5.71,34.33-28.65,74.99-1.11,1.97-2.26,3.97-3.43,6-6.98,12.07-15.02,25.07-24.06,38.71-37.03,55.86-90.97,122.56-158.72,180.5"/>
  <path class="st0" d="M275.37,355.74"/>
  <path class="st5" d="M273.3,359.42"/>
  <line class="st0" x1="251.22" y1="307.18" x2="224.52" y2="350.87"/>
  <path class="st0" d="M251.31,394.45"/>
  <path class="st0" d="M250.88,394.11s39.91,57.81,56.8,54.82c0,0,41.4.99,49.51-4.14,0,0-60.14-37.22-78.93-95.29l-27.38,44.6Z"/>
  <path class="st0" d="M505.25,471l-28.26,23.85s5.24-71.23-90.31-127.12c0,0,90.72-59.8,150.85,108.56"/>
  <path class="st1" d="M343.57,267.43"/>
  <path class="st1" d="M234.37,268.53"/>
  <text class="st2" transform="translate(302.45 343.43) rotate(-.54) scale(.97 1)"><tspan x="0" y="0">Tidslerne</tspan></text>
  <path class="st3" d="M225.38,247.41s-22.14,11.78-32.05,27.14l-.52.02c-.38-12.2,1.08-67.41,58.2-71.97l.34-.31c64.26,5.14,56.38,73.72,56.38,73.72-9.91-15.36-31.71-27.25-31.71-27.25-21.98-12.56-50.36-1.45-50.36-1.45l-.28.1Z"/>
  <path class="st4" d="M363.87,370.44"/>
  <path class="st4" d="M363.1,370.61"/>
</svg>