<?xml version="1.0" encoding="UTF-8"?>
<svg id="Layer_1" xmlns="http://www.w3.org/2000/svg" version="1.1" viewBox="0 0 595.28 841.89">
  <!-- Generator: Adobe Illustrator 29.5.1, SVG Export Plug-In . SVG Version: 2.1.0 Build 141)  -->
  <defs>
    <style>
      .st0, .st1 {
        fill: none;
      }

      .st2 {
        fill: #8d3f8d;
      }

      .st3 {
        fill: #d61488;
      }

      .st4 {
        fill: #9b4299;
      }

      .st5 {
        fill: #e8168c;
      }

      .st6 {
        fill: #511843;
        font-family: BrushScriptMT, 'Brush Script MT';
        font-size: 70px;
      }

      .st6, .st7 {
        isolation: isolate;
      }

      .st8 {
        fill: #9b4399;
      }

      .st1 {
        stroke: #e8168c;
        stroke-miterlimit: 10;
      }

      .st9 {
        fill: #ce519d;
      }

      .st10 {
        fill: #a454a0;
      }
    </style>
  </defs>
  <path class="st8" d="M325.93,452.33l62.19-51.79s37.26,16.23,42.89,30.47c0,0-33.31,41.83-74.14,46.98l-30.94-25.67h0Z"/>
  <path class="st2" d="M225.39,383.17c-23.76-41.75-34.59-71.98-30.17-77.5,10.94-13.68,31.71-27.25,31.71-27.25,5.15,20.36,16.38,40.29,27.93,60.78"/>
  <path class="st4" d="M91.23,570.24l-34.85-17.41s101.64-77.88,168.4-170.38c10.11-14,19.42-28.34,27.45-42.79,11.05-19.89,19.7-39.99,24.7-59.74,0,0,20.59,13.62,31.53,27.31,4.34,5.43-5.71,34.33-28.65,74.99-1.11,1.97-2.26,3.97-3.43,6-6.98,12.07-15.02,25.07-24.06,38.71-37.03,55.86-90.97,122.56-158.72,180.5"/>
  <path class="st3" d="M276.81,388.56"/>
  <path class="st5" d="M274.75,392.23"/>
  <line class="st0" x1="252.66" y1="340" x2="225.96" y2="383.69"/>
  <path class="st3" d="M252.75,427.27"/>
  <path class="st2" d="M252.32,426.93s39.91,57.81,56.8,54.82c0,0,41.4.99,49.51-4.14,0,0-60.14-37.22-78.93-95.29l-27.38,44.6h0Z"/>
  <path class="st2" d="M506.7,503.82l-28.26,23.85s5.24-71.23-90.31-127.12c0,0,90.72-59.8,150.85,108.56"/>
  <path class="st9" d="M345.02,300.25"/>
  <g class="st7">
    <text class="st6" transform="translate(303.9 376.33) rotate(-.54) scale(.97 1)"><tspan x="0" y="0">Tidslerne</tspan></text>
  </g>
  <path class="st10" d="M252.81,235.11c64.25,5.14,56.37,73.72,56.37,73.72-9.91-15.36-31.7-27.24-31.7-27.24h-.01c-21.97-12.57-50.36-1.46-50.36-1.46l-.28.1s-22.14,11.78-32.05,27.14h-.52c-.38-12.22,1.11-67.39,58.21-71.95l.34-.31h0Z"/>
  <path class="st1" d="M365.32,403.26"/>
  <path class="st1" d="M364.55,403.42"/>
</svg>