<?xml version="1.0" encoding="UTF-8"?>
<svg id="Layer_1" xmlns="http://www.w3.org/2000/svg" version="1.1" viewBox="0 0 841.89 1190.55">
  <!-- Generator: Adobe Illustrator 29.5.0, SVG Export Plug-In . SVG Version: 2.1.0 Build 137)  -->
  <defs>
    <style>
      .st0, .st1 {
        fill: #0a00df;
        opacity: .2;
      }

      .st1 {
        stroke: #ea0a8c;
        stroke-miterlimit: 10;
      }

      .st2 {
        fill: #c4234b;
      }
    </style>
  </defs>
  <path class="st0" d="M15.55,416.87"/>
  <path class="st0" d="M19.12,408.27"/>
  <path class="st1" d="M33.9,72.89"/>
  <path class="st1" d="M36.28,72.97"/>
  <path class="st2" d="M580.8,572.21c-1.72,2.9,1.04,11.21,2.15,14.51,11.21.36,18.9,3.21,27.33,9.54.76-.18,6.01-11.27,7.08-13.03,9.23-15.18,20.23-29.56,30.54-44.1.84-1.19,5.71-11.12,7.68-10.05-11.23,29.6-31.77,60.85-25.96,92.69.33.22,6.4-3.64,7.14-4.2,39.45-29.97,74.15-71.29,103.85-109.71,1.34-1.73,2.56-6.98,5.8-6.67-3.2,5.89-5.47,12.26-8.54,18.19-20.88,40.34-51.47,75.33-77.34,113.03-4.32,6.29-14.17,19.9-16.59,26.14-.76,1.97-1.31,3.88-.74,5.94,8.17-1.84,16.55-3.68,24.62-5.91,7.16-1.99,20.12-5.34,26.46-8.07,20.17-8.68,45.82-15.75,65.35-25.75,4.48-2.29,19.05-7.08,24.38-8.57,1.02-.28,4.21-1.58,4.36-.02-2.84,1.24-6.47,2.97-9.02,4.6-29.27,18.71-62.2,33.39-92.4,51.51-13.21,7.93-41.65,24.96-51.1,35.53-.66.73-2,1.3-2.99,1.62,1.14,1.27,5.13.78,6.97.81,10.46.17,22.61.94,32.16.94,17.47,0,38.95-3.17,55.54-2.24.93.05,1.61,1.67,2.95,1.11l-106.6,27.07c.22,1.88,1.44,3.31,2.47,4.82,17.29,25.43,48.61,41.94,75.45,57.42,1.18.68,2.63.75,2.55,2.52l-16.93-4.71c-31.25-12.87-65.25-19.67-98.51-27-.95-.21-4.81-.3-5.07.08l6.87,23.98c2.18,9.19,4.27,31.5,10.11,37.63,1.5,1.58,8.81,6.27,10.9,5.84l22-4.48-18.32,14.96c-16.01,14.84-9.74,37.68-9.27,56.09.28,11.05-.24,22.08.02,33.13,3.98,10.11,16.07,11.86,22.63,19.91-11.91.67-24.59-5.26-29.31,9.13l-25.7,101.93-18.11-2.21-32.68-3.53c2.67-11.57,36.46-94.24,35.32-106.57-1.24-13.47-5.8-18.15-15.41-27.08-2.78-2.58-2.51-3.06-4.31-4.97-1.03-1.1-7.31-5.78-6.69-6.71,4.36,1.99,9.17,3.13,13.62,4.86,1.41.55,2.04,1.93,3.21,2.43,3.23,1.39,10.13,2.03,12.47-1.01,2.75-3.58,1.19-26.23.63-31.57-2.61-24.82-9.67-48.65-20.36-71.21l-18.32,82.22c-1.11-27.91-1.41-56.34-11.16-82.79-1.41-3.81-3.7-7.3-5.07-11.12-13.32,14.07-27.74,26.99-40.63,41.42-12.2,13.67-23.98,29.16-35.12,43.57-.84,1.08-1.16,2.38-2.96,2.39,7.1-17.46,18.62-33.47,26.11-50.88,2.08-4.83,10.61-26.62,6.73-29.9l-16.3-.71c-23.99,19.57-49.34,36.94-74.23,55.53-1.05.78-.9,1.93-1.91,2.68l-25.28,18.26c2.33-6.23,8.32-10.31,12.82-15.24,17.34-18.98,36.59-38.02,51.56-58.56,2.4-3.29,5.99-5.99,7.19-10.34-3.28,2.12-5.14-.56-5.69-.59-14.09-.68-37.87,5.34-49.28,11.74l-46.25,18.38,17.73-12.26c15.8-12.53,34.09-23.7,50.9-34.96,2.56-1.71,8.53-4.23,10.25-5.87,3.4-3.24-6.27-3.5-6.78-3.6-11.63-2.39-34.38,1.28-47.32,3.45-33.73,5.66-67.79,13.75-100.97,21.5-8.88,2.07-17.88,3.26-26.49,6.29-.47-1.19,1.41-1.53,2.32-1.97,8.49-4.11,18.73-6.87,27.56-10.42,22.08-8.88,48.02-18.66,69.9-27.53l65-22.2c-1.26-6.31-9.45-6.6-14.67-8.59-26.44-10.08-55.64-13.88-84.06-17.59-9.77-1.28-22.44-1.24-31.67-3.32-.93-.21-3.29-1.15-3.75-2.02,2.96.1,7.22-1.14,9.82-1.09,21.69.35,47.59-.65,69.49-.87,15.11-.15,32.27-1.8,47.15-.55.81.07,1.85,2.51,4.8.73l-11.47-11.07-28.44-17.35c1.83-.06,4.43.23,6.16.61,10.96,2.4,20.87,2.44,31.96,5.85,3.53,1.09,7.12,2.12,10.64,3.21-1.09-10.49,1.81-22.53,1.08-32.83-.12-1.77-.21-1.07-1.6-.96-3.81.3,200.3-92.48,199.58-91.26Z"/>
  <g>
    <path class="st2" d="M303.32,751.2"/>
    <path class="st2" d="M437.69,1020.87"/>
    <path class="st2" d="M367.15,718.8c-5.02.32-10.99,2.62-16.19,3.36-79.8,11.35-123.97,24.93-205.64,5.91-6.17-1.44-35.41-9.88-38.1-13.79-1.53-2.23.74-2.08,2.34-1.91,11.53,1.21,23.26,4.21,35.13,5.3,44.91,4.12,93.86,1.65,135.36-17.29-.15-2.22-3.06-.59-4.57-.35-52.53,8.58-119.51.46-166.64-25.5-2.78-1.53-16.06-9.12-8.01-9.02,51.05,14.71,104.08,15.32,156.02,3.43-.07-1.85-2.49-1.24-3.88-1.39-46.76-5.27-76.09-11.22-119.69-29.96-9.31-4-47.45-20.81-51.25-27.97-.87-1.63-.34-2.23,1.45-2.19,48.06,15.71,99.17,34.42,150.41,26.04,1.49-.24,1.56-2.38.09-2.73l-36.59-8.82s-.09-.03-.14-.04c-41.4-14.57-83.71-32.15-119.36-57.9-1.06-3.06,1.62-2.32,3.41-1.9,18.42,4.33,36.41,12.6,54.56,18.1,31.29,9.48,63.25,18.93,95.94,21.97,1.58.15,2.14-2.07.68-2.68-7.84-3.31-16.02-5.84-23.82-9.3-32.78-14.53-81.92-44.27-108.17-68.46-.78-.72-3.6-3.35-4.92-5.24-.61-.87-.02-2.08,1.04-2.17,1.36-.12,2.65.2,4.05.66,8.8,2.9,22.2,11.55,31.32,15.91,29.34,14.03,60.54,28.33,91.33,38.76,1.6.54,3.32,1.15,5.07,1.72,1.59.52,2.59-1.68,1.15-2.53l-44.21-25.96s-.09-.06-.14-.09c-22.91-17.47-46.5-34.1-66.53-55.01-2.63-2.74-14.55-15.14-18.75-21.74-.78-1.22.59-2.68,1.86-1.98,25.21,14.06,47.86,33,72.69,47.96.03.02.06.04.09.05l45.84,23.55c1.53.79,2.85-1.34,1.46-2.36-24.19-17.79-48.54-37.16-68.49-59.02-4.03-4.42-9.76-9.43-12.08-15.19-.53-1.31,1-2.49,2.13-1.64,33.98,25.56,69.15,49.47,107.47,68.11.07-2.44-1.9-2.69-3.35-3.84-4.75-3.77-10.86-6.63-15.69-10.34-28.42-21.81-63.42-59.69-83.64-89.32-3.15-4.62-6.8-9.59-8.87-14.92-.52-1.35,1.1-2.5,2.21-1.57l60.96,51.28c1.23,1.04,2.96-.5,2.06-1.84-12.35-18.56-25.94-36.69-34.49-57.28-.57-1.37,1.11-2.58,2.22-1.59,9.03,8.09,31.11,33.28,33.05,35.26,19.19,19.59,39.09,38.16,61.74,53.5,1.37.93,2.93-.87,1.83-2.1l-24.72-27.29s-.06-.07-.08-.1c-22.44-29.64-41.16-62.11-56.54-96.03-.26-.58-.1-1.27.4-1.67l.3-.24c.6-.48,1.47-.39,1.96.2,29.05,35.54,57.15,72.89,91.76,103.15,1.26,1.1,3.03-.52,2.05-1.87-24.43-33.64-48.08-69.2-59.71-109.4-.37-1.29,1.12-2.3,2.2-1.5,2.11,1.57,3.86,3.81,5.53,5.66,15.71,17.46,29,40.46,44.71,58.95,2.78,3.27,5.73,6.67,8.82,9.91,1.17,1.23,3.1-.32,2.16-1.73-11.22-16.93-20.91-34.8-29.41-53.31-3.11-6.77-20.84-47.66-19.74-51.3.51-1.7,1.28-1.73,2.47-.47,27.29,38.67,50.78,80.67,86.42,112.41,1.16,1.03,2.88-.32,2.17-1.7-4.2-8.13-8.82-16.01-12.61-24.41-8.49-18.81-16.33-41.84-21.3-61.89-1.26-5.09-6.86-30-6.06-33.07.15-.56,1.16-1.82,1.62-1.6,17.65,37.35,34.17,75.31,60.12,107.86.09.11.18.23.27.36.91,1.25,2.89.28,2.47-1.21-7.81-27.55-19.39-53.84-27.87-81.21-4.62-14.91-9.95-32.58-13.57-47.62-.35-1.47-6.02-23.63-.21-19.96,16.67,42.28,36.9,82.92,61.77,120.87.3.45.83.68,1.37.62,1.41-.17,1.79.09,1.01-1.86-2.71-6.73-3.08-12.02-4.83-18.69-7.5-28.57-18.42-56.61-25.18-85.36-.1-.4-.5-2.94-.44-5.03.04-1.43,1.99-1.84,2.64-.56l52.23,103.54c.63,1.26,2.54.89,2.64-.51.24-3.63-.22-7.92-.6-10.71-1.77-12.97-5.39-29.4-8.54-42.22-6.09-24.78-19.71-55.06-22.68-79.31-.23-1.88-1.7-3.37,1.22-3.47,9.07.92,56.93,121.87,61.22,138.66,1.66.06,1.57-2.71,1.39-3.69-6.95-37.37-17.51-76.49-19.09-114.78-.03-.64-.12-1.28-.13-1.89-.05-1.55,2.11-1.99,2.69-.55l50.79,125.79c.62,1.54,2.94.9,2.67-.74-.05-.29-.09-.58-.13-.87-6.04-46.86-27.74-90.91-34.14-135.26-.88-6.09-2.44-15.96-.2-22.41.43-1.23,2.17-1.24,2.63-.02l50.95,136.61c.52,1.39,2.55,1.12,2.7-.35l.53-5.5s0-.09,0-.13c.48-41.75-12.47-81.4-20.62-121.95-.06-1.21.23-3.73,1.99-3,3.99,1.66,13.24,26.51,15.35,31.97,15.89,41.18,28.55,84.3,30.3,128.6,1.88-.08,1.2-2.49,1.38-3.89,3.44-26.62,5.2-58.54,1.2-85.06-2.96-19.61-9.83-40.17-12.27-59.62-.16-1.28-.47-2.47-.33-3.62.16-1.23,1.73-1.61,2.5-.64,5.25,6.68,8.42,14.75,11.56,22.6,13.91,34.68,23.1,74.25,24.44,111.52,2.14-.84,1.62-2.94,1.8-4.7,1.5-14.2.75-34.95-.11-49.44-1.23-20.59-4.7-41.01-7.02-61.51,2.09-5.74,5.57,3.55,6.62,5.8,10.43,22.29,18.02,58.08,21.62,82.63.51,3.46.28,7.15.46,10.75.08,1.59,2.34,1.84,2.75.3,10.92-40.59,7.99-83.24,7.12-124.94,2.86-3.94,7.21,10.38,7.65,11.95,6.49,23.17,10,55.96,10.74,80.16.72,23.57-2.35,47.28-8.62,69.94,3.31.07,2.01-1.27,2.74-2.97,9.47-21.94,18.64-46.75,23.94-70.04,3.2-14.07,4.16-29.49,7.52-43.31.38-1.55.67-3.45,1.25-5.17.48-1.43,2.58-1.2,2.72.3,2.67,28.97.65,60.27-3.38,88.96-.94,6.68-2.27,13.29-3.62,19.88-.36,1.74,2.18,2.38,2.7.69l21.23-69.66c.43-1.4,2.44-1.28,2.71.17,4.08,21.93.08,46.03-2.35,67.97.51,3.73,1.59.64,2.23-.68,20.4-42.47,23.1-93.51,33.72-138.65.36-1.54.54-4.4,1.49-6.16.63-1.17,2.44-.77,2.59.55,2.16,18.52,1.22,38.03-.03,56.57-3.17,47.15-11.99,95.14-32.52,137.83,2.55.07,2.69-1.85,3.7-3.45,16.33-25.68,32.42-50.92,44.38-79.03,6.59-15.49,11.39-31.8,18.02-47.28.18-.43.57-.74,1.04-.83h0c.9-.17,1.73.57,1.66,1.48-1.9,23.46-9.72,48.14-17.24,70.39-8.24,24.4-18.76,47.78-29.66,71.04,2.44.07,2.68-1.9,3.84-3.35,33.41-41.67,59.54-84.29,75.99-135.5.12-.38.4-.69.76-.85l1.13-.5c.91-.4,1.95.25,1.96,1.25.45,27.37-9.81,56.56-20.75,81.33-12.93,29.29-30.64,55.58-48.73,81.77-.85,1.22.56,2.75,1.85,2.01,10.34-5.94,19.78-15.07,28.11-23.23,13.44-13.18,28.38-30.57,39.5-45.77,12.38-16.92,21.53-35.85,33.32-53.1.77-1.12,2.55-.57,2.55.78-.02,10.2-4.84,20.28-8.6,29.57-18.78,46.34-50.88,87.45-86.35,122.46-1.09,1.07.09,2.88,1.5,2.29,7.38-3.07,14.71-8.17,20.84-12.57,34.34-24.64,64.1-59.01,92.08-90.4,2.42-1.03,2.36.63,2.2,2.53-.4,4.7-7.98,17.09-10.78,21.84-23.97,40.7-67.06,83.74-103.35,114.06-25.12,20.99-25.46,34.28-45.56,60.53-.08.1,1.15,1.41,1.04,1.49l-24.95,21.2"/>
  </g>
</svg>